<svg xmlns="http://www.w3.org/2000/svg" version="1.1" xmlns:xlink="http://www.w3.org/1999/xlink" viewBox="0 0 2560 1440">
  <rect width="2560" height="1440" fill="#dfdfde" />
  <!-- Cloud (Inner Left)-->
  <ellipse cx="500" cy="500" rx="60" ry="30" fill="rgba(223,240,248,0.858)"/>
  <ellipse cx="550" cy="500" rx="60" ry="45" fill="rgba(223,240,248,0.858)"/>
  <ellipse cx="600" cy="500" rx="60" ry="35" fill="rgba(223,240,248,0.858)"/>
  <!-- Cloud (Inner Middle)-->
  <ellipse cx="750" cy="900" rx="80" ry="50" fill="rgba(223,240,248,0.858)"/>
  <ellipse cx="850" cy="870" rx="90" ry="95" fill="rgba(223,240,248,0.858)"/>
  <ellipse cx="950" cy="900" rx="80" ry="55" fill="rgba(223,240,248,0.858)"/>
  <!-- Cloud (Bottom Right)-->
  <ellipse cx="2200" cy="1225" rx="190" ry="90" fill="rgba(223,240,248,0.858)"/>
  <ellipse cx="2100" cy="1300" rx="100" ry="80" fill="rgba(223,240,248,0.858)"/>
  <ellipse cx="1900" cy="1200" rx="250" ry="180" fill="rgba(223,240,248,0.858)"/>
  <ellipse cx="1600" cy="1258" rx="180" ry="110" fill="rgba(223,240,248,0.858)"/>
  <!-- Cloud (Top)-->
  <ellipse cx="900" cy="125" rx="190" ry="90" fill="rgba(223,240,248,0.858)"/>
  <ellipse cx="1300" cy="150" rx="250" ry="110" fill="rgba(223,240,248,0.858)"/>
  <ellipse cx="1200" cy="100" rx="180" ry="110" fill="rgba(223,240,248,0.858)"/>
  <ellipse cx="1000" cy="158" rx="180" ry="110" fill="rgba(223,240,248,0.858)"/>
  <!-- Overlay Cloud (Top) -->
  <ellipse cx="900" cy="125" rx="150" ry="50" fill="#dfdfde"/>
  <ellipse cx="1300" cy="150" rx="210" ry="70" fill="#dfdfde"/>
  <ellipse cx="1200" cy="100" rx="140" ry="70" fill="#dfdfde"/>
  <ellipse cx="1000" cy="158" rx="140" ry="70" fill="#dfdfde"/>
  <!-- Cloud (Bottom Left)-->
  <ellipse cx="600" cy="1250" rx="290" ry="190" fill="rgba(223,240,248,0.858)"/>
  <ellipse cx="350" cy="1100" rx="300" ry="200" fill="rgba(223,240,248,0.858)"/>
  <ellipse cx="100" cy="1200" rx="350" ry="250" fill="rgba(223,240,248,0.858)"/>
<!-- Cloud (Top Right)-->
  <ellipse cx="2050" cy="100" rx="300" ry="200" fill="rgba(223,240,248,0.858)"/>
  <ellipse cx="2500" cy="200" rx="350" ry="250" fill="rgba(223,240,248,0.858)"/>
<!-- Cloud (Inner Right)-->
<ellipse cx="1500" cy="700" rx="180" ry="90" fill="rgba(223,240,248,0.858)"/>
<ellipse cx="1750" cy="600" rx="250" ry="120" fill="rgba(223,240,248,0.858)"/>
<ellipse cx="1700" cy="700" rx="160" ry="85" fill="rgba(223,240,248,0.858)"/>
<ellipse cx="1900" cy="675" rx="190" ry="90" fill="rgba(223,240,248,0.858)"/>
<!-- Cloud (Top Left)-->
<ellipse cx="350" cy="300" rx="220" ry="100" fill="rgba(223,240,248,0.858)"/>
<ellipse cx="50" cy="250" rx="300" ry="195" fill="rgba(223,240,248,0.858)"/>
<ellipse cx="0" cy="140" rx="200" ry="150" fill="rgba(223,240,248,0.858)"/>
</svg>
